<?xml version="1.0" encoding="UTF-8"?><svg id="Layer_1" xmlns="http://www.w3.org/2000/svg" xmlns:xlink="http://www.w3.org/1999/xlink" viewBox="0 0 50 50"><defs><style>.cls-1{fill:url(#linear-gradient);}</style><linearGradient id="linear-gradient" x1="5.02" y1="25" x2="44.98" y2="25" gradientTransform="matrix(1, 0, 0, 1, 0, 0)" gradientUnits="userSpaceOnUse"><stop offset="0" stop-color="#0265e7"/><stop offset="1" stop-color="#00a3fd"/></linearGradient></defs><path class="cls-1" d="M44.98,18.73c-.02,1.12-.04,2.25-.07,3.37,0,.04,0,.08,0,.12-.01,1.06-.02,2.11-.04,3.17-.01,.73-.02,1.47-.04,2.2,0,.03,0,.06-.01,.12h-7.36c-3.14,0-6.27,0-9.41,0h-8.73s-3.19,.12-4.53,1.65c-.32,.38-.61,.81-.85,1.29-.68,1.33-.9,2.75-.69,4.25,.19,1.32,.7,2.47,1.52,3.45,1.8,2.13,4.67,2.72,7.05,1.45,.21-.11,.4-.25,.6-.36,.07-.04,.14-.05,.22-.07,.03,0,.07,0,.11,0,3.44,0,6.88,0,10.32,0h.23c-.01,.06-.02,.1-.03,.14-.46,1.26-1.07,2.44-1.81,3.53-.5,.73-1.05,1.4-1.65,2.02-.81,.83-1.7,1.54-2.66,2.14-1.26,.78-2.59,1.34-4,1.68-.42,.1-.84,.15-1.26,.22-.37,.06-.73,.13-1.1,.17-.32,.04-.64,.07-.96,.08-.44,.01-.88,.02-1.32,0-.35-.01-.7-.07-1.04-.1-.55-.06-1.08-.17-1.61-.31-1.89-.5-3.61-1.39-5.17-2.66-.67-.55-1.29-1.16-1.86-1.82-.97-1.14-1.76-2.41-2.38-3.81-.52-1.16-.89-2.38-1.13-3.64-.1-.51-.14-1.04-.21-1.56-.1-.82-.08-1.64-.05-2.45,.03-.86,.15-1.71,.33-2.56,.43-2.04,1.21-3.92,2.33-5.62,.59-.89,1.26-1.7,2.01-2.44,1.84-1.8,3.97-3,6.38-3.59,.55-.13,1.1-.22,1.65-.29,.53-.06,1.05-.07,1.58-.06h3.89v-2.2c0-.09,0-.18,0-.27v-.08h0c.04-2.79,.78-5.42,2.31-7.89,1.92-3.11,4.63-5.27,8.07-6.48,2.9-1.02,5.86-1.12,8.86-.4V11.04c-.08,.02-.12-.04-.17-.07-.78-.5-1.63-.82-2.55-.92-1.88-.21-3.54,.31-4.93,1.59-1.86,1.71-2.45,4.39-1.53,6.73,.09,.23,.06,.21,.31,.21,3.7-.01,7.4-.02,11.1-.03,.09,0,.18,0,.28,0,0,.08,.01,.13,.01,.18Zm-22.3,10.28v9.25h10.68v-9.25h-10.68Z"/></svg>